<svg fill="none" height="65" viewBox="0 0 174 65" width="174" xmlns="http://www.w3.org/2000/svg"><g fill="#408f95"><path d="m5.14568 39.0632-.05471.0539c.05471-.0539.05471-.0539.05471-.1078v-.2693c.6018-3.178 1.75068-6.3022 2.89956-9.3725 1.20359-3.2318 2.35246-6.4099 3.88426-9.4802 1.4225-2.9087 3.0637-5.7635 4.9238-8.4029 1.6413-2.42389 3.6108-5.06327 6.1274-6.67921.7659-.21546 1.5318-1.02343 2.5166-.86184.9847.1616.9847 1.18503.7659 2.1546.2736-.75411.4377-1.56208-.2188-2.10073-.8754-.64638-2.5713.37705-3.2825.86184-.3283.10772-.6565.32318-.9301.53864.1641-.16159.383-.32318.6565-.48478l-.2735.10773.7659-.43092c.8753-.48478 2.8448-1.56208 3.5013-.16159.4924 1.13116-.2735 3.01642-.6565 4.09372-.7112 1.83144-1.5865 3.55504-2.5166 5.27874.1642-.377.8207-1.8314.8207-1.8314-.383-.0539-2.1337 3.9321-2.4619 4.0399h.0547c-.2188.1616-.383.3232-.383.377-.1094.6464.6565.4848 1.0942.4309 1.8601-.2154 4.2673-1.7775 5.4709-3.1241 1.313-1.4544 1.8054-3.6628 1.8054-5.60196v-.05386c-.0548-3.66281-2.6261-8.29518-7.0575-8.0258567-2.4618.1077317-4.7596 2.4777767-6.3462 4.0937267-1.1488 1.29275-2.243 2.69324-3.2278 4.09372-.4376.64638-.8753 1.23889-1.2583 1.88523-.4376.5926-1.313 1.5083-1.5318 2.2085 0 0 .2735-.3232.4924-.5386-.6018.9156-1.14891 1.8852-1.696 2.8009-.05471-.0538.32825-.808.32825-.808-.49238-.1077-2.73543 4.3092-3.00897 4.794-.98476 1.7776-1.86009 3.5551-2.46189 5.4404-.6565 2.1007-1.53184 4.0937-2.18834 6.1405-.32826 1.0235-.65651 1.993-.875342 3.0165-.109418.4848-.218835.9157-.273544 1.4005 0 .0538-.109417.9157 0 .8079-.109417.3771-.109417.8619-.164126 1.2389 0 0 0-.9157.054709-1.0234-.218834.2693-.054709 1.2927-.109417 1.4005-.273543 2.0468-.711212 4.2014 0 6.1944.93005 2.7471 3.22781 5.0094 5.74441 6.4638 1.313.808 3.06368 1.7237 4.70496 1.6159 1.9148-.1077 3.7749-1.6698 5.1973-2.8009 4.1579-3.4474 7.9328-8.2952 8.644-13.7894.0547-.3771.3282-2.2623-.3283-2.3162-.6018-.0539-1.0395 1.2389-1.2583 1.5621-1.6412 2.6394-3.5561 5.1171-5.6897 7.3795-2.1883 2.37-4.9238 4.9016-8.26099 5.6558-.43767.1077-.93005.1616-1.42242.1616-.65651-.0539-1.2583-.2155-1.75068-.7003-.27354-.2693-.54709-1.185-.87534-1.3466 0-.2693-.05471-.5387-.10942-.7003l-.16412-.3231c-.05471-1.616 0-3.1242.27354-4.794v-.0539c0-.0538.05471-.0538.05471-.1077zm9.62872-26.3399c-2.1336 3.4474-3.939 7.0024-5.74441 10.6652-1.03946 2.1546-2.07892 4.3631-2.89955 6.6793 1.14888-3.609 2.51659-7.0563 4.15786-10.5037 1.9695-4.1475 4.5955-8.1874 7.7139-11.52702-1.2583 1.50821-2.3525 3.23192-3.2278 4.68622zm5.635-5.92511c-.7659.75411-1.4771 1.61594-2.1336 2.42392 1.0394-1.34663 2.1336-2.69324 3.5013-3.77054-.4924.43092-.9848.96956-1.3677 1.34662zm5.5803.43092c.1094-.32319.2188-.70024.2735-1.13116-.1094.48478-.3282.96956-.3282 1.34662.0547-.10773.0547-.1616.0547-.21546z"/><path d="m52.4699 29.96s.0547.0539 0-.0538c-.2735-.3771-.6565-.1077-1.0394 0-1.5866.3232-3.2279.7002-4.8691.9696.6018-1.9392 1.2036-3.986 1.4224-5.979.1094-.7541.1641-1.5621 0-2.3162-.1094-.4848-.2735-.9696-.5471-1.4005 0 0-.6565-.808-.4923-.3771l-.0548-.0538-.2188-.4309.2188.2154c.0548-.3232-.8753-.9157-.8753-.9157-1.3677-1.3466-3.2278-2.37-5.0879-1.3466-1.1489.6464-2.0789 1.7237-2.8448 2.801-.2736.377-.5471.8079-.766 1.2389-.2188.4309-.5471 1.8314-.8753 2.0468-.2735.2155-1.0942.2693-1.4771.4848-.5471.2155-1.0395.4848-1.4772.808-1.0394.6463-1.8601 1.562-2.626 2.4777-1.313 1.7237-1.9695 3.6629-2.8995 5.3865-1.7507 3.2858.1641 7.595 3.3919 9.157 1.0395.4848 2.243.7003 3.3372.5925 1.1489-.1615 2.2431-.754 3.1184-1.4004.8206-.5925 2.626-1.6698 2.9543-2.5855 0-.0539-.1094 0-.2736.1616l1.5866-1.8314c.0547.0538-.383.5925-.383.5925.383.1616 2.3525-2.6933 2.5713-2.9087.383-.6464.7659-1.3467 1.2036-1.993.383-.4848.2736-.4309.8206-.6464-.0547.0539.6566-.1616.766-.1616.6018-.1077 7.0027-.5387 5.4161-2.5317zm-18.9292 10.8807h-.0547c-4.5408.6464.7112-8.8338.8207-9.3724l-.3283.4847c.8206-1.6159 1.5866-2.9087 1.9695-3.3396.6018 2.6933 3.5561 3.7167 5.9633 4.0399-1.5866 3.1242-4.5409 7.4872-8.3705 8.1874zm10.7776-14.9205c-.3829 1.5082-.7112 3.5012-1.5318 4.8478-.2735.5387-.1094.3771-.6565.4848-.3283.1077-1.0395 0-1.3677-.0539-.6018-.0538-1.313-.1616-1.7507-.5386-.7659-.6464-.6565-1.6698-.5471-2.5855s.383-1.7776.7112-2.6394c.1642-.3232 1.2036-2.0469 1.0395-2.37-.0547-.1616-.6565.8079-.7112.8618.3282-.5925.6565-.9157.93-1.2928-.0547 0 0-.0538.0547-.1616v.0539l.0547-.1077s0-.0539.0548-.0539c.8206-1.0773 2.8448-3.5012 3.939-1.8314.8206 1.4005.0547 4.0399-.2189 5.3865zm-3.7749-3.5012.0548-.0539c0 .0539-.0548.0539-.0548.0539z"/><path d="m81.0073 30.2294v-.0539c-.3282-1.7775-2.7901 1.185-3.1184 1.4544-1.5865 1.7236-3.0637 3.6089-4.4861 5.4942-1.4224 1.9391-2.7901 3.8782-4.2673 5.8174-.7112.9695-1.4224 1.8852-2.243 2.7471-.2736.3232-.9301 1.2389-1.4224 1.2389-1.9148 0-.4377-7.595-.2189-8.78.3283-2.1007.4924-4.9017 1.8601-6.5715.3283-.4309 4.0485-5.1172 4.0485-5.1172-.1095-.0538-.5471.4848-.8207.808l2.3525-3.1241.1641-.2155.4377-.5925c.0547.0538 0 .1616-.0547.2693l.4924-.5386 1.4224-1.8314c1.0395-1.4544 2.0242-3.0165 2.9542-4.5247 1.4772-2.4778 3.5014-6.0328 2.4072-9.04928-.8206-2.20845-3.8296-2.63937-5.8538-1.88526-1.4771.53865-2.7354 1.66981-3.7749 2.85483-.5471.70024-1.0942 1.45431-1.5865 2.26231-.1642.2155-.8754 1.9391-1.0395 2.1546h.0547c-.3283.5925-.6565 1.185-.8753 1.7775.1094-.4309.3829-1.2927.6018-1.4543-.4377.3232-.8207 1.8853-.9301 2.0469-2.0789 4.4707-3.8843 8.9954-5.1973 13.7355-1.4771-1.6698-3.8296-4.5247-6.4009-3.5012-2.1336.8618-3.7202 3.0703-4.8144 5.0094-.9847 1.7237-1.2583 3.5012-1.9695 5.171-1.2583 2.8548-1.8601 8.7261 2.4072 9.5879 1.313.2694 2.5166-.5386 3.5561-1.2388 1.8601-1.3467 3.6107-2.9087 5.252-4.5247-.2736 2.8548-.8754 7.164 1.4771 9.4264 2.8996 2.9087 5.7991-1.0235 7.5498-3.1781 2.2431-2.8009 3.9937-5.9251 6.2368-8.6183 1.0942-1.2928 2.1883-2.5856 3.3372-3.7706.8754-.8618 2.626-1.9391 2.4619-3.2857zm-20.1328 3.5551c-.0547.1615-.0547.2693-.0547.2693-.2188 1.2927-.2188 2.4239-1.1489 3.3396-.8206.8618-1.6959 1.6698-2.5713 2.4778-.8206.7541-2.7901 2.9625-4.0484 2.8548-1.5318-.1616-.383-3.6089.383-5.7097-.8207 2.1546-2.1337 5.6558-.3283 5.7636.4924.0538 1.313-.3771 2.0242-.9696-.6565.5925-1.7506 1.4005-2.4072 1.0773-1.2582-.5386-.1641-3.6089.0548-4.4708.7112-2.4778 1.7506-4.8478 2.9542-7.1101.6018-1.1312 1.4772-2.9626 2.626-3.0703l-.2735.1616c.0547-.0539.1094-.0539.1641-.0539.383-.1077.7659.1616 1.0395.3771.7112.4847 1.1489 1.4004 1.6412 2.1007.5471.8618.1642 1.7775-.0547 2.7471zm8.8081-12.4428c0-.0539 0-.1616.0547-.2155v-.0538c.0547-.1616.1094-.2155.1094-.2155v-.0539c1.2583-3.4473 2.6261-6.8947 4.5956-10.0188.4924-.80799 1.9148-3.28577 3.1731-2.58553.4924.26933.6018.96957.6018 1.45435.2188 3.23188-2.4072 7.05628-4.0485 9.64178-1.9148 3.0164-4.0484 5.979-6.2915 8.7261l1.2036-1.2389 1.0942-1.3466-2.7901 3.5551-.383.4848-.2188.2154c.0547-.3232.3282-.6464.6018-1.0234-.1095.1077-.2189.2155-.2736.3232.7112-2.3162 1.4772-4.6324 2.2978-6.9486-.0547.0539 0-.0538.0547-.2693l.1641-.2693c0-.0539 0-.1078.0547-.1616zm-4.5955 4.4169c-.1094.2693-.4377 1.5082-.6018 1.6698 0 .0539-.0547.1077-.1094.1077.4377-.5386.1641-1.2389.383-1.8852.1094-.3232.6565-.9157.7659-1.3467 0 .431-.2736 1.1851-.4377 1.4544zm-8.6987 14.9205c1.3677-1.185 2.6808-2.4239 3.939-3.7166-.1094.7002-1.8053 1.8852-2.4071 2.4239-.7112.7002-1.5319 1.4005-2.3525 2.0469h-.0547zm9.6835-19.8222c-.2189.6464-.4924 1.2389-.8207 1.8314.2736-.808.4377-1.6159.8207-2.37.3282-.5926.7112-1.3467.9847-2.0469-.2735.8618-.7112 1.7775-.9847 2.5855zm3.556.6464-.2188.5386c0-.0538.0547-.1616.0547-.2693zm-11.817 7.1101c-.2189.1616-.383.3771-.4377.3771.1094 0 .2735-.2155.4377-.3771zm1.5318-.1077c.1094.0539.2188.1077.3282.2155zm10.8323-.9696c0-.0538.0547-.1077.1094-.1616-.0547.1078-.1094.1616-.1094.1616zm.1094-.1616.0547-.1077c0 .0539-.0547.1077-.0547.1077z"/><path d="m97.9439 30.0678c0 .0538 0 .0538-.0547 0v-.0539c-.8753-1.4543-2.0242.5387-2.5166 1.2389-.93 1.2389-1.8054 2.4239-2.7901 3.5551-.8207.9696-1.696 1.9391-2.3525 2.9625 0 .1078-.1094.3771-.1094.3771-.2189.3232-.5471.5925-.8207.9157-.4923.4848-.9847 1.0234-1.5318 1.5082-.8206.7541-5.4162 5.0094-6.0179 2.2623-.3283-1.3466.1094-3.0164.3829-4.3091.1641-.7003.3283-1.3467.4377-2.0469.1094-.5387-.0547-1.0773.2188-1.616.1641-.3231.2189-.2693.6018-.377l.9301-.3232c.6018-.2155 1.2035-.4309 1.7506-.7541.8207-.4848 1.5866-1.0773 2.2978-1.6698 1.696-1.4005 3.5013-3.0703 4.2126-5.171.3829-1.1851.4376-2.4778-.3283-3.5012-.7112-.9157-1.9148-1.4005-3.009-1.616-2.9542-.5386-5.1973 1.1312-6.8933 3.3396-2.0789 2.5317-3.556 5.6558-4.2672 8.8339-.383 1.562-.6018 3.1241-.8754 4.7401-.2735 1.6159-.4376 3.1241.4377 4.6323-.0547-.5386-.1641-1.0234-.1641-1.5082 0-.2693.1094-.5386.1094-.7541 0-.1077-.1094-.4309-.1094-.5925 0-.4848.1094-.8618.2188-1.3466.0547-.4848 0-.9696.0547-1.4544.0547-.5386.2736-.9695.4924-1.4543.1641-.4309.2188-.808.383-1.2389.1641-.3771.2735-.808.4376-1.2389.0547-.2693.3283-.5925.4924-.9157-.1641.4848-.4924.9157-.6018 1.3466-.1641.6464-.0547 1.3466-.1094 1.993-.1094.7003-.3283 1.4005-.4377 2.1546-.1094.7002-.4376 1.3466-.5471 2.0469-.1094.6463-.3282 1.1311-.2735 1.7775 0 .3771.0547.7541.1094 1.0773.0547.4309.3283.7002.6018 1.0234.9301 1.0773 2.1883 1.9392 3.6108 2.3162.9847.2693 1.8601.2155 2.7901-.2693 1.313-.7003 2.4619-1.7775 3.4467-2.801.93-1.0234 1.6412-2.1546 2.4618-3.2319.766-.9695 1.696-1.8852 2.4619-2.8548l2.9543-3.7705 1.696-2.2085c.2735-.3232.4376-.5925.2188-1.0234zm-13.5677.5925c.0547-.1077.0547-.1616.0547-.1616.8206-1.7237 1.4224-3.5551 2.5713-5.2249l.9847-1.2927c.2189-.2694.6018-.7541.9848-.8619.8206-.1616 1.0395 1.2389.9848 1.7776l-.2189 1.1311c-.0547.3232.0547.5387 0 .808-.1094.3232-.383.4848-.5471.7541l-.93 1.185c-1.2583 1.4544-2.8449 2.6933-4.5955 3.609.2735-.5925.4376-1.1851.7112-1.7237z"/><path d="m127.571 14.2854c-.219-1.7237-2.899-3.0164-4.376-1.993-1.204.808-2.298 3.0164-3.174 4.3092l-5.361 7.972c-.821 1.2389-1.641 2.4778-2.517 3.6628-.218.377-2.297 3.5551-2.297 3.5551.218.0538.711-.7003.82-.808-1.477 2.0468-3.392 4.2014-5.197 6.2483-.602.7541-4.213 5.4403-5.5257 4.8478-.4376-.2154-.5471-.9157-.6018-1.2927-.4376-2.8549.6565-5.7097.9845-8.4568l-.219.5386.329-1.3466c0 .1616-.055.3232-.055.4848l.055-.3232-.164 1.616c.766-3.2319 1.86-6.3561 3.118-9.3725.328-.7541 3.501-8.5645 4.158-9.2648-.11.0539-.274.2694-.438.4848 1.04-1.8852 2.134-3.6628 3.392-5.38645-.273.43095-.766 1.23885-.766 1.23885.219.0539 2.407-2.90866 2.407-3.23184 0-.05387-.164.05386-.328.16159.547-.70024.93-1.0773.492-2.26232-.656-1.34662-2.571-3.01643-4.157-2.20846-.329.21546-.547.48478-.766.75411-1.149 1.45435-2.079 3.33962-2.845 4.95556-.274.64638-.493.75411-.93 1.23886-.711.808-1.094 1.8853-1.587 2.801-.985 1.9391-1.75 3.986-2.6258 5.979-.8753 1.8314-1.5865 3.7167-2.1883 5.6558-.2735.7541-.4924 1.5082-.7112 2.2623-.2189.7541-.9848 2.1546-.8754 2.9626l.3283-.7003c-.2735.9157-.4924 1.8853-.7112 2.8549-.0547 0 .0547-.7003.0547-.7003-.2188 0-.7112 2.3701-.8206 2.6933-.2189 1.1311-.383 2.2623-.4924 3.4473-.0547 1.2389 0 2.3701.6018 3.5012 1.1489 1.993 3.2278 3.9322 5.4711 4.6324.383.1077.82.2155 1.203.1616s.766-.2155 1.04-.4848c.219-.1077 1.094-1.0234.492-.5925l1.04-.9696s-.493.5925-.657.7003c.274-.1078.875-.9157.875-.9157 1.806-1.9392 3.611-3.8244 5.253-5.9252 1.695-2.2623 3.227-4.7401 4.759-7.164-.438 1.2928-.547 2.5855-.93 3.8783-.219.7002-.438 1.4005-.602 2.1007-.109.2693-.219 1.5621-.109 1.4544 0 .1616 0 .2693-.055.377 0-.0538 0-.1077-.055-.1616-.164.0539-.164 1.6698-.218 1.9392-.219.7541-.547 1.4543-.657 2.3161-.273 2.2624-.109 4.9017 1.313 6.8409.875 1.185 2.189 1.8314 3.666 1.9391 1.586.0539 2.462-.808 3.282-1.993.547-.808 1.04-1.5082 1.368-2.4239.273-.7541.821-2.2085.492-2.9626-.219-.4848-.328-.5386-.766-.3232-.601.2155-1.313 1.5083-1.696 1.993-.547.5926-1.641 2.1008-2.571 2.2085-.547.0539-.438-.0539-.547-.7002-.055-.3771-.055-2.9087 0-2.9626-.164.2154-.219.4309-.274.6464.219-1.7776.985-3.9322 1.532-5.8174.657-2.2085 1.149-4.4169 1.751-6.6254.656-2.2623 1.532-4.5246 2.462-6.6792.219-.4848 2.681-5.8174 3.064-6.3022-.383.2693-2.353 4.363-3.009 5.7097 1.313-3.0703 2.844-6.0329 4.759-8.8339.055 0-.547.9157-.437.9157.164.1078 1.477-1.8852 1.367-1.9391-.054 0-.109 0-.164.0539.274-.2694.602-.431.547-.9696zm-14.279 25.5858c-.492 2.2084-1.039 5.171-.602 7.3794-.492-2.4777-.328-5.2787.11-7.7565.328-2.0468.93-3.9321 1.641-5.8174-.602 2.1546-.656 4.0399-1.149 6.1945zm-9.136-20.4687c1.532-3.6089 3.72-6.8946 6.018-10.0188-2.298 3.2319-4.158 6.7331-5.799 10.342-1.259 2.8549-2.407 5.602-3.228 8.4568.164-.7541.328-1.5082.602-2.2623.656-2.2085 1.532-4.3631 2.407-6.5177zm-1.258 5.2249c.984-2.6393 2.133-5.2787 3.446-7.8642-1.203 2.4778-2.845 6.356-3.446 7.8642zm17.342 3.5551c-.164.4848-.383.9696-.602 1.4005l.985-2.4778z"/><path d="m155.665 30.0139c-.328.0539-3.173.9157-3.009 1.3466 0 .0539.11.1078.164.1078-.93.377-2.133.4309-3.063 1.0234-1.04.7002-2.024 1.4005-3.119 1.993.985-1.6698 1.915-3.4474 2.517-5.2249.219-.6464 1.477-4.6324.657-5.0633-.11-.0538-.165.4309-.219.7003.054-2.1546-.657-5.4404-3.611-5.6558-1.805-.1078-3.501 2.1007-4.486 3.2857-2.243 2.801-4.213 5.8174-6.182 8.7261-.547.808-6.018 9.5341-6.018 9.5341s.383-.5387.875-1.2389c-.492.808-.985 1.6698-1.422 2.5316.219-.8079 2.297-7.2179 3.61-10.9884.11-.1616.165-.377.219-.5386l.329-.9157v.0538c.492-1.4543.984-2.9087 1.422-4.4169 0 .1616-.219.9696-.164.9696.328.0538.766-2.2085.547-2.2085l-.164.2693c.164-.8079.437-1.185-.055-2.1007-.383-.808-1.039-1.5621-1.969-1.7775-1.806-.4848-2.681.9695-2.572 2.37 0 .2155.274.3232.274.5387 0 .2693-.274.7541-.328.9695-.383 1.1312-.657 2.2085-1.095 3.2858-.218.5925-2.243 6.1945-2.243 6.1945.11-.0539.164-.1616.219-.2694-.164.4848-.328.9696-.547 1.4544-.055-.0539.164-.4309.055-.4309-.547-.1078-1.915 4.4169-2.024 4.8478-.219 1.0234-.493 1.993-.876 3.0164-.164.5387-.383 1.0773-.547 1.6698 0 .0539-.273 1.3466 0 .8619-.055.1616-.109.2693-.109.377 0-.0539-.055-.1077-.055-.1616-.164.0539-.273 1.185-.273 1.2389-.219.5925-.493 1.0234-.766 1.5621-.712 1.7237-1.095 3.6089-1.368 5.4403-.438 2.801-1.751 7.0025-.328 9.588.492.9157 2.024 2.8009 3.227 1.6698.548-.5387.548-1.7776.602-2.4239.328-1.7776.602-3.609.985-5.3865l.492-2.4778c.055-.1077.493-2.1007.329-2.0469-.11.1078-.219.2694-.274.431.274-.8619.657-1.6699.985-2.5856.437-1.2927.766-2.5316 1.422-3.7166.766-1.1851 1.423-2.4778 2.134-3.6628.547-.9696 1.039-2.2085 1.641-3.0165.164-.2154.493-.3231.766-.5386.547-.5925.93-1.4005 1.368-2.0469.82-1.2927 1.532-2.5855 2.407-3.7705.383-.5387 4.76-6.5715 5.197-6.9486-.109.0539-.219.1078-.328.2155.438-.5386.93-1.0234 1.368-1.4544.054.0539-.329.3771-.274.431.11.0538 2.626-1.8853 3.064-1.9392 1.203-.2154.766 2.0469.602 2.6394-.274 1.2389-.985 2.4239-1.587 3.5012-.328.5925-.656 1.1312-.93 1.7237-.055.0539-.492 1.0773-.328.9696l-.328.4847c.109-.1616.164-.377.164-.377-.219 0-.493.9157-.547 1.0773-.329.5386-.766.9695-1.204 1.4005-1.149 1.2927-2.188 2.6393-3.337 3.8782-.876.9157-2.024 2.5317-3.337 2.8549-.93.2154-1.642-.2694-1.149 1.185.328 1.0234 1.532 3.3935 2.845 3.3935 1.203 0 2.68-1.7776 3.391-2.5317.821-.9157 1.751-1.7775 2.626-2.7471.219-.3232 2.736-3.2857 3.119-3.4473h-.055c.547-.2693 1.094-.0539 1.86-.5925.438-.3232.657-.6464 1.149-.9696.383-.2155.547-.4848.711-.6464 0 0 0 .0539.055.0539.547-.5387 1.313-.3771 2.024-.8619.876-.5925 1.97-1.3466 2.736-2.0468.984-.8618 2.352-1.3466 2.79-2.801-.219.0539-.493.0539-.657.1616zm-28.01 5.4942v.0539c-.055.7002-.548 1.5082-.821 2.1546-.383 1.0234-.711 2.0468-1.04 3.0703-.711 2.1546-1.531 4.3092-2.407 6.356-.711 1.7237-1.367 3.609-1.86 5.4942.602-2.6393 1.587-5.2249 2.353-7.7026.711-2.2624 1.805-4.4708 2.68-6.6793.11-.2693 1.149-2.4239 1.04-2.8548.055.0539.055.1077.055.1077zm2.407 1.616c-.164.6463-.329 1.2389-.547 1.7775.164-.5386.328-1.185.547-1.7775zm7.495-8.8339-1.04 1.5083c.329-.4848.657-1.0235 1.04-1.5083zm8.917 6.5177c.055-.1616.329-.2155.493-.3232zm-13.075-6.3022c-.055.0539-.109.2155-.164.4309zm2.462 2.2623v-.0538c.055-.0539.055-.0539.055-.1078.054-.0538 0 .0539-.055.1616zm-2.845-1.3466c0 .1077-.055.1616-.109.2155zm-11.598 23.7005c0-.0539 0-.0539.054-.1077 0 .0538 0 .0538-.054.1077zm8.972-16.6442c0 .0539-.055.0539-.055.0539z"/><path d="m173.988 30.7142c-.165-.7541-.602-.8619-1.149-.6464-1.04.4848-2.079 1.5621-3.064 2.2084-2.243 1.4005-4.486 2.5317-6.893 3.7167 0-.0539-.055-.1616-.11-.3232.055.2693 0 .3771-.054.4309-.547-2.3161-1.095-4.6323-1.532-7.0024.219 1.0234.711 2.7471 1.094 4.2015-.492-2.2624-1.094-5.0633-1.04-5.0633-.109.0538-.109.1616-.109.2693-.109-.6464-.273-1.4543-.164-2.1546.055-.808.492-1.5082.766-2.2623-.055.377-.164.8618-.164.8618.328.0539.547-1.9391.547-2.1546-.055-.3232-.766-1.3466-.766-1.0773-1.477-1.3466-4.377 1.616-4.814 2.9087-.329.8619-.329 1.7776-.274 2.6933s.328 1.7236.602 2.5855c.164.6464-.055 1.0773 0 1.7775.109 1.0773.492 2.1546.711 3.178.219.808.93 2.424.766 3.1781-.109.7541-1.751 1.4005-2.462 1.8314-.93.5925-1.86 1.2927-2.79 1.993-1.641 1.2389-3.392 2.8009-4.049 4.7939-.109.2694-.492 1.4544-.109 1.6698.055.0539.219-.8618.274-.9695-.712 3.555 2.844 5.2787 6.182 5.3326 3.775.1077 6.401-2.0469 7.714-5.3865.547-1.4543.711-2.9626.656-4.4708 0-1.0234-.109-1.993-.273-2.9625-.11-.8619-.219-.808.383-1.2928.437-.3232 1.094-.5386 1.531-.7541 1.751-.9157 3.338-1.993 4.924-3.1242 1.149-.8079 3.884-2.2084 3.666-3.9321zm-22.103 18.5294c-1.422-.4309 0-2.6393.493-3.3396.82-1.0773 2.024-1.8852 3.118-2.6394l1.641-1.0772c.164-.1078 1.204-.9157.876-.808l.656-.3771-.383.3232c.11-.0538.274-.1077.383-.2154.055 1.2927.055 2.5855-.328 3.8782-.055.2155-1.094 2.3701-1.532 2.801l.274-.2155c-.493.5925-1.04 1.0773-1.696 1.4544 0-.0539.492-.3771.437-.4309l-1.531.5925c-.766.1616-1.642.3232-2.408.0538zm6.894 1.5621c-1.423.5925-2.791.8619-4.268.9157 2.681-.1616 5.471-1.4543 7.058-3.6628-.602 1.185-1.368 2.1007-2.79 2.7471zm3.993-15.2976c-.054-.377-.164-.9157-.328-1.5082.11.5925.219 1.185.328 1.5082zm.712 5.602c-.055-.0539-.055-.1616-.055-.2694 0 .1078.055.2155.055.2694z"/></g></svg>