<svg fill="none" height="45" viewBox="0 0 120 45" width="120" xmlns="http://www.w3.org/2000/svg"><g fill="#fff"><path d="m3.54875 27.0438-.03774.0372c.03774-.0372.03774-.0372.03774-.0745v-.1865c.41503-2.2002 1.20736-4.363 1.99969-6.4886.83006-2.2375 1.62239-4.4377 2.67884-6.5632.98098-2.0138 2.11292-3.99018 3.39572-5.81744 1.1319-1.6781 2.4902-3.50536 4.2258-4.62409.5282-.14916 1.0564-.70853 1.7355-.59666.6792.11188.6792.82041.5283 1.49165.1886-.52208.3018-1.08144-.151-1.45435-.6036-.4475-1.7733.26103-2.2638.59665-.2263.07458-.4527.22375-.6414.37291.1132-.11187.2641-.22374.4528-.33562l-.1887.07459.5283-.29833c.6036-.33562 1.9619-1.08144 2.4147-.11188.3396.78312-.1887 2.0883-.4528 2.83412-.4905 1.26789-1.0942 2.46121-1.7356 3.65452.1132-.26104.566-1.26789.566-1.26789-.2641-.0373-1.4715 2.72222-1.6979 2.79682h.0378c-.151.1119-.2641.2237-.2641.261-.0755.4475.4527.3357.7546.2984 1.2828-.1492 2.9429-1.2306 3.773-2.16291.9055-1.00686 1.2451-2.53579 1.2451-3.87827v-.03729c-.0378-2.53579-1.8111-5.742815-4.8672-5.55636-1.6979.0745833-3.2825 1.71539-4.3767 2.83412-.7923.89498-1.54695 1.86455-2.22609 2.83411-.30184.4475-.60368.8577-.86779 1.30519-.30185.4102-.90553 1.04415-1.05645 1.52893 0 0 .18865-.22374.33957-.37291-.41503.63395-.79233 1.30519-1.16963 1.93909-.03773-.0372.22638-.55932.22638-.55932-.33957-.07458-1.8865 2.98332-2.07515 3.31892-.67914 1.2306-1.28283 2.4612-1.69786 3.7664-.45276 1.4543-1.05644 2.8341-1.5092 4.2511-.226381.7086-.452761 1.3798-.603682 2.0883-.07546.3357-.15092.634-.18865.9696 0 .0373-.07546.634 0 .5594-.07546.261-.07546.5966-.11319.8577 0 0 0-.634.03773-.7086-.150921.1865-.03773.895-.075461.9696-.18865 1.4171-.490491 2.9087 0 4.2885.641412 1.9018 2.226073 3.468 3.961663 4.4749.90552.5594 2.11288 1.1933 3.24478 1.1187 1.32056-.0746 2.60333-1.156 3.58433-1.9391 2.8675-2.3866 5.4709-5.7428 5.9614-9.5465.0377-.261.2264-1.5662-.2264-1.6035-.415-.0373-.7169.8577-.8678 1.0814-1.1319 1.8273-2.4524 3.5427-3.9239 5.1089-1.5092 1.6408-3.39572 3.3935-5.69726 3.9155-.30184.0746-.64141.1119-.98098.1119-.45276-.0373-.86779-.1491-1.20736-.4848-.18865-.1864-.3773-.8204-.60369-.9322 0-.1865-.03772-.373-.07546-.4848l-.11319-.2238c-.03773-1.1187 0-2.1629.18865-3.3189v-.0373c0-.0373.03774-.0373.03774-.0745zm6.64045-18.23535c-1.47143 2.38665-2.71653 4.84785-3.96162 7.38365-.71687 1.4916-1.43374 3.0205-1.99969 4.6241.79233-2.4985 1.73558-4.8852 2.86748-7.2718 1.35829-2.8714 3.16933-5.66823 5.31993-7.98027-.8678 1.04415-1.6224 2.23746-2.2261 3.24432zm3.8862-4.10201c-.5282.52207-1.0187 1.11873-1.4714 1.67809.7168-.93227 1.4714-1.86455 2.4147-2.61037-.3396.29833-.6791.67124-.9433.93228zm3.8485.29833c.0755-.22375.1509-.48479.1887-.78311-.0755.33561-.2264.67123-.2264.93227.0377-.07458.0377-.11187.0377-.14916z"/><path d="m36.1862 20.7416s.0377.0373 0-.0373c-.1887-.2611-.4528-.0746-.7169 0-1.0942.2237-2.2261.4848-3.358.6712.415-1.3425.8301-2.7595.981-4.1393.0754-.5221.1132-1.0814 0-1.6035-.0755-.3356-.1887-.6712-.3773-.9696 0 0-.4528-.5593-.3396-.261l-.0377-.0373-.1509-.2983.1509.1491c.0377-.2237-.6037-.6339-.6037-.6339-.9432-.9323-2.2261-1.6408-3.5089-.9323-.7923.4475-1.4337 1.1933-1.962 1.9392-.1886.261-.3773.5593-.5282.8576-.1509.2984-.3773 1.2679-.6037 1.4171-.1886.1492-.7546.1865-1.0187.3356-.3773.1492-.7168.3356-1.0187.5594-.7169.4475-1.2828 1.0814-1.811 1.7154-.9056 1.1933-1.3583 2.5358-1.9997 3.7291-1.2074 2.2747.1132 5.258 2.3392 6.3395.7169.3356 1.547.4847 2.3016.4101.7923-.1118 1.5469-.522 2.1506-.9695.5659-.4102 1.811-1.156 2.0374-1.79 0-.0373-.0754 0-.1886.1119l1.0941-1.2679c.0378.0373-.2641.4102-.2641.4102.2641.1119 1.6224-1.8646 1.7733-2.0137.2642-.4475.5283-.9323.8301-1.3798.2641-.3356.1887-.2983.566-.4475-.0378.0373.4527-.1119.5282-.1119.415-.0745 4.8294-.3729 3.7353-1.7526zm-13.0547 7.5328h-.0377c-3.1316.4474.4905-6.1158.566-6.4887l-.2264.3356c.5659-1.1187 1.0942-2.0137 1.3583-2.312.415 1.8645 2.4524 2.5731 4.1125 2.7968-1.0941 2.1629-3.1316 5.1835-5.7727 5.6683zm7.4329-10.3297c-.2641 1.0442-.4905 2.424-1.0565 3.3562-.1886.3729-.0754.2611-.4527.3357-.2264.0745-.7169 0-.9433-.0373-.415-.0373-.9055-.1119-1.2073-.3729-.5283-.4475-.4528-1.1561-.3773-1.79.0754-.634.2641-1.2306.4904-1.8273.1132-.2237.8301-1.417.7169-1.6408-.0377-.1118-.4527.5594-.4905.5967.2264-.4102.4528-.634.6414-.895-.0377 0 0-.0373.0378-.1119v.0373l.0377-.0746s0-.0373.0377-.0373c.566-.7458 1.962-2.4239 2.7166-1.2679.5659.9696.0377 2.7969-.1509 3.7291zm-2.6034-2.4239.0377-.0373c0 .0373-.0377.0373-.0377.0373z"/><path d="m55.8671 20.928v-.0373c-.2264-1.2306-1.9242.8204-2.1506 1.0069-1.0942 1.1933-2.1129 2.4985-3.0939 3.8037-.981 1.3425-1.9242 2.6849-2.9429 4.0274-.4905.6712-.981 1.3052-1.547 1.9018-.1886.2238-.6414.8577-.9809.8577-1.3206 0-.3019-5.258-.151-6.0784.2264-1.4543.3396-3.3935 1.2829-4.5495.2263-.2983 2.792-3.5426 2.792-3.5426-.0755-.0373-.3773.3356-.566.5593l1.6224-2.1629.1132-.1491h.0378-.0378l.3019-.4102c.0377.0373 0 .1119-.0378.1864l.3396-.3729.981-1.2679c.7169-1.0068 1.396-2.0883 2.0374-3.1324 1.0187-1.7154 2.4147-4.17661 1.6601-6.26491-.5659-1.52893-2.6411-1.82725-4.0371-1.30518-1.0187.37291-1.8865 1.15602-2.6034 1.97642-.3773.48479-.7546 1.00686-1.0941 1.56622-.1132.14917-.6037 1.34248-.7169 1.49165h.0377c-.2264.4102-.4527.8204-.6037 1.2306.0755-.29833.2642-.89499.4151-1.00686-.3019.22375-.566 1.30516-.6414 1.41706-1.4338 3.0952-2.6789 6.2276-3.5844 9.5092-1.0187-1.156-2.6411-3.1324-4.4144-2.4239-1.4715.5966-2.5657 2.1256-3.3203 3.4681-.6791 1.1933-.8677 2.4239-1.3582 3.5799-.8678 1.9764-1.2829 6.0411 1.6601 6.6378.9055.1864 1.7356-.3729 2.4524-.8577 1.2829-.9323 2.4902-2.0137 3.6221-3.1324-.1886 1.9764-.6037 4.9597 1.0187 6.5259 1.9997 2.0137 3.9994-.7085 5.2068-2.2002 1.5469-1.9391 2.7543-4.102 4.3012-5.9665.7546-.895 1.5092-1.79 2.3016-2.6104.6036-.5967 1.811-1.3425 1.6978-2.2748zm-13.8847 2.4612c-.0377.1119-.0377.1865-.0377.1865-.1509.895-.1509 1.6781-.7923 2.312-.566.5967-1.1697 1.1561-1.7733 1.7154-.566.5221-1.9243 2.051-2.7921 1.9764-1.0564-.1118-.2641-2.4985.2641-3.9528-.5659 1.4916-1.4714 3.9156-.2263 3.9901.3395.0373.9055-.261 1.396-.6712-.4528.4102-1.2074.9696-1.6601.7458-.8678-.3729-.1132-2.4985.0377-3.0951.4905-1.7154 1.2073-3.3562 2.0374-4.9224.415-.7832 1.0187-2.0511 1.8111-2.1256l-.1887.1118c.0377-.0373.0755-.0373.1132-.0373.2641-.0745.5282.1119.7169.2611.4905.3356.7923.9695 1.1319 1.4543.3773.5967.1132 1.2306-.0378 1.9019zm6.0746-8.6142c0-.0373 0-.1119.0377-.1492v-.0372c.0377-.1119.0755-.1492.0755-.1492v-.0373c.8678-2.3866 1.811-4.77325 3.1693-6.93613.3396-.55936 1.3206-2.27475 2.1883-1.78997.3396.18646.4151.67124.4151 1.00686.1509 2.23746-1.6602 4.88514-2.7921 6.67514-1.3205 2.0882-2.792 4.1393-4.3389 6.0411l.8301-.8577.7546-.9323-1.9243 2.4612-.2641.3357-.1509.1491c.0377-.2237.2264-.4475.415-.7085-.0754.0746-.1509.1492-.1886.2237.4905-1.6035 1.0187-3.207 1.5846-4.8105-.0377.0373 0-.0373.0378-.1865l.1131-.1864c0-.0373.0001-.0746.0378-.1119zm-3.1693 3.0579c-.0755.1864-.3019 1.0441-.4151 1.156 0 .0373-.0377.0746-.0754.0746.3018-.3729.1132-.8577.2641-1.3052.0754-.2238.4527-.634.5282-.9323 0 .2983-.1887.8204-.3018 1.0069zm-5.9991 10.3296c.9432-.8204 1.8487-1.6781 2.7165-2.5731-.0754.4848-1.2451 1.3052-1.6601 1.6781-.4905.4848-1.0564.9696-1.6224 1.4171h-.0377zm6.6782-13.7231c-.1509.4475-.3396.8577-.566 1.2679.1887-.5594.3019-1.1187.566-1.6408.2264-.4102.4905-.9323.6791-1.4171-.1886.5967-.4905 1.2306-.6791 1.79zm2.4524.4475-.1509.3729c0-.0373.0378-.1119.0378-.1865zm-8.1496 4.9224c-.151.1119-.2642.261-.3019.261.0755 0 .1887-.1491.3019-.261zm1.0564-.0746c.0755.0373.1509.0746.2264.1492zm7.4706-.6712c0-.0373.0377-.0746.0754-.1119-.0377.0746-.0754.1119-.0754.1119zm.0754-.1119.0377-.0746c0 .0373-.0377.0746-.0377.0746z"/><path d="m67.5475 20.8162c0 .0372 0 .0372-.0377 0v-.0373c-.6037-1.0069-1.396.3729-1.7356.8577-.6414.8577-1.2451 1.6781-1.9242 2.4612-.566.6712-1.1697 1.3424-1.6224 2.051 0 .0746-.0755.261-.0755.261-.1509.2238-.3773.4102-.5659.634-.3396.3356-.6792.7085-1.0565 1.0441-.5659.5221-3.7353 3.4681-4.1503 1.5662-.2264-.9323.0755-2.0883.2641-2.9833.1132-.4847.2264-.9322.3019-1.417.0754-.3729-.0378-.7458.1509-1.1187.1132-.2238.1509-.1865.415-.2611l.6414-.2237c.4151-.1492.8301-.2984 1.2074-.5221.5659-.3356 1.0942-.7458 1.5847-1.156 1.1696-.9696 2.4147-2.1256 2.9052-3.58.2641-.8204.3018-1.7153-.2264-2.4239-.4905-.6339-1.3206-.9695-2.0752-1.1187-2.0374-.3729-3.5843.7831-4.754 2.312-1.4337 1.7527-2.4524 3.9156-2.9429 6.1158-.2641 1.0814-.415 2.1628-.6037 3.2816-.1886 1.1187-.3018 2.1629.3019 3.207-.0378-.3729-.1132-.7085-.1132-1.0442 0-.1864.0754-.3729.0754-.522 0-.0746-.0754-.2984-.0754-.4102 0-.3356.0754-.5967.1509-.9323.0377-.3356 0-.6712.0377-1.0069.0377-.3729.1887-.6712.3396-1.0068.1132-.2983.1509-.5594.2641-.8577.1132-.261.1886-.5594.3018-.8577.0378-.1865.2264-.4102.3396-.634-.1132.3357-.3396.634-.415.9323-.1132.4475-.0378.9323-.0755 1.3798-.0754.4848-.2264.9696-.3018 1.4916-.0755.4848-.3019.9323-.3773 1.4171-.0755.4475-.2264.7831-.1887 1.2306 0 .261.0378.5221.0755.7458.0377.2983.2264.4848.415.7085.6414.7459 1.5092 1.3425 2.4902 1.6036.6791.1864 1.2828.1491 1.9242-.1865.9056-.4848 1.6979-1.2306 2.377-1.9391.6414-.7086 1.1319-1.4917 1.6979-2.2375.5282-.6712 1.1696-1.3052 1.6978-1.9764l2.0375-2.6104 1.1696-1.5289c.1887-.2238.3018-.4102.1509-.7085zm-9.357.4102c.0377-.0746.0377-.1119.0377-.1119.5659-1.1933.981-2.4612 1.7733-3.6172l.6791-.895c.151-.1865.4151-.5221.6792-.5967.5659-.1119.7169.8577.6791 1.2306l-.1509.7831c-.0377.2238.0377.3729 0 .5594-.0755.2237-.2641.3356-.3773.5221l-.6414.8204c-.8678 1.0068-1.962 1.8645-3.1693 2.4985.1886-.4102.3018-.8204.4905-1.1933z"/><path d="m87.9801 9.88989c-.1509-1.19331-1.9997-2.0883-3.0184-1.37977-.83.55937-1.5846 2.08828-2.1883 2.98328l-3.6976 5.5191c-.5659.8577-1.1319 1.7154-1.7356 2.5358-.1509.261-1.5846 2.4612-1.5846 2.4612.1509.0373.4905-.4848.5659-.5594-1.0187 1.4171-2.3392 2.9087-3.5843 4.3258-.4151.522-2.9052 3.7664-3.8108 3.3562-.3018-.1492-.3773-.634-.415-.895-.3018-1.9765.4528-3.9529.6791-5.8547l-.1509.3729.2264-.9323c0 .1119-.0377.2238-.0377.3356l.0377-.2237-.1132 1.1187c.5282-2.2374 1.2828-4.4003 2.1506-6.4886.2264-.5221 2.4148-5.9293 2.8675-6.4141-.0754.0373-.1886.1865-.3018.3356.7168-1.30514 1.4715-2.53574 2.3392-3.72906-.1886.29833-.5282.8577-.5282.8577.1509.03729 1.6601-2.01372 1.6601-2.23746 0-.0373-.1131.03729-.2263.11187.3773-.48478.6414-.74582.3395-1.56622-.4527-.93228-1.7733-2.0883-2.8675-1.52894-.2263.14917-.3773.33562-.5282.52208-.7923 1.00686-1.4337 2.31204-1.9619 3.43077-.1887.4475-.3396.52208-.6414.8577-.4905.55936-.7547 1.30518-1.0942 1.93913-.6792 1.34243-1.2074 2.75953-1.8111 4.13933-.6037 1.2679-1.0941 2.5731-1.5092 3.9155-.1886.5221-.3395 1.0442-.4905 1.5663-.1509.522-.6791 1.4916-.6036 2.051l.2263-.4848c-.1886.6339-.3395 1.3052-.4905 1.9764-.0377 0 .0378-.4848.0378-.4848-.1509 0-.4905 1.6408-.566 1.8646-.1509.7831-.2641 1.5662-.3395 2.3866-.0378.8577 0 1.6408.415 2.4239.7923 1.3798 2.2261 2.7222 3.773 3.207.2641.0746.5659.1492.8301.1119.2641-.0373.5282-.1492.7168-.3356.151-.0746.7546-.7085.3396-.4102l.7169-.6713s-.3396.4102-.4528.4848c.1887-.0746.6037-.6339.6037-.6339 1.2451-1.3425 2.4902-2.6477 3.6221-4.102 1.1696-1.5663 2.2261-3.2816 3.2825-4.9597-.3018.895-.3773 1.7899-.6414 2.6849-.1509.4848-.3019.9696-.415 1.4544-.0755.1864-.151 1.0814-.0755 1.0068 0 .1119 0 .1865-.0377.2611 0-.0373 0-.0746-.0378-.1119-.1132.0373-.1132 1.156-.1509 1.3425-.1509.522-.3773 1.0068-.4527 1.6035-.1887 1.5662-.0755 3.3935.9055 4.7359.6037.8204 1.5092 1.2679 2.5279 1.3425 1.0942.0373 1.6978-.5594 2.2638-1.3798.3773-.5593.7169-1.0441.9432-1.6781.1887-.522.566-1.5289.3396-2.051-.1509-.3356-.2264-.3729-.5282-.2237-.415.1492-.9055 1.0441-1.1696 1.3798-.3773.4102-1.1319 1.4543-1.7733 1.5289-.3773.0373-.3019-.0373-.3773-.4848-.0378-.261-.0378-2.0137 0-2.051-.1132.1492-.151.2983-.1887.4475.1509-1.2306.6791-2.7222 1.0564-4.0274.4528-1.529.7924-3.0579 1.2074-4.5868.4528-1.5662 1.0564-3.1325 1.6979-4.6241.1509-.3356 1.8487-4.0274 2.1128-4.3631-.2641.1865-1.6223 3.0206-2.0751 3.9529.9055-2.1256 1.962-4.1766 3.2825-6.1157.0377 0-.3773.6339-.3018.6339.1132.0746 1.0187-1.3052.9432-1.3425-.0377 0-.0754 0-.1132.0373.1887-.1864.4151-.2983.3773-.67121zm-9.8475 17.71321c-.3396 1.529-.7169 3.58-.4151 5.1089-.3395-1.7154-.2263-3.6545.0755-5.3699.2264-1.4171.6414-2.7223 1.1319-4.0274-.415 1.4916-.4528 2.7968-.7923 4.2884zm-6.301-14.1706c1.0565-2.4985 2.5657-4.77321 4.1504-6.93609-1.5847 2.23746-2.8675 4.66139-3.9994 7.15989-.8678 1.9764-1.6602 3.8782-2.2261 5.8547.1132-.5221.2264-1.0442.415-1.5663.4528-1.5289 1.0565-3.0205 1.6601-4.5122zm-.8677 3.6173c.6791-1.8273 1.4714-3.6546 2.377-5.4445-.8301 1.7154-1.962 4.4003-2.377 5.4445zm11.9604 2.4612c-.1132.3356-.2641.6712-.415.9695l.6791-1.7153zm-9.0552-8.9872v-.0373zm2.8297-4.92238c0 .03729-.0377.07458-.0754.07458.0377 0 .0754-.03729.0754-.07458z"/><path d="m107.355 20.7789c-.226.0373-2.188.6339-2.075.9322 0 .0373.076.0746.113.0746-.641.2611-1.471.2983-2.112.7085-.717.4848-1.396.9696-2.151 1.3798.679-1.156 1.321-2.3866 1.736-3.6172.15-.4475 1.018-3.207.452-3.5054-.075-.0373-.113.2984-.151.4848.038-1.4916-.452-3.7664-2.49-3.9155-1.2449-.0746-2.4145 1.4543-3.0937 2.2747-1.5469 1.9391-2.9052 4.0274-4.2635 6.0412-.3773.5593-4.1503 6.6005-4.1503 6.6005s.2641-.3729.6037-.8577c-.3396.5593-.6792 1.156-.981 1.7527.1509-.5594 1.5847-4.997 2.4902-7.6074.0755-.1119.1132-.2611.1509-.3729l.2264-.634v.0373c.3396-1.0068.6791-2.0137.981-3.0578 0 .1118-.1509.6712-.1132.6712.2264.0373.5282-1.5289.3773-1.5289l-.1132.1864c.1132-.5593.3018-.8204-.0377-1.4543-.2641-.5594-.7169-1.0815-1.3583-1.2306-1.2451-.3357-1.8488.6712-1.7733 1.6408 0 .1491.1886.2237.1886.3729 0 .1864-.1886.5221-.2264.6712-.2641.7831-.4527 1.5289-.7546 2.2748-.1509.4102-1.5469 4.2884-1.5469 4.2884.0755-.0373.1132-.1118.1509-.1864-.1132.3356-.2263.6712-.3773 1.0068-.0377-.0373.1132-.2983.0378-.2983-.3773-.0746-1.3206 3.0579-1.3961 3.3562-.1509.7085-.3395 1.3798-.6036 2.0883-.1132.3729-.2641.7458-.3773 1.156 0 .0373-.1887.9323 0 .5967-.0378.1118-.0755.1864-.0755.261 0-.0373-.0377-.0746-.0377-.1119-.1132.0373-.1887.8204-.1887.8577-.1509.4102-.3395.7086-.5282 1.0815-.4905 1.1933-.7546 2.4985-.9433 3.7664-.3018 1.9391-1.2073 4.8478-.2263 6.6378.3395.6339 1.396 1.9391 2.226 1.156.3773-.3729.3773-1.2306.4151-1.6781.2264-1.2306.415-2.4985.6791-3.7291l.3396-1.7154c.0377-.0746.3396-1.4544.2264-1.4171-.0755.0746-.151.1865-.1887.2984.1887-.5967.4528-1.1561.6792-1.79.3018-.895.5282-1.7527.9809-2.5731.5283-.8204.981-1.7154 1.4715-2.5358.3773-.6712.7169-1.5289 1.1319-2.0883.1132-.1491.3396-.2237.5282-.3729.3773-.4102.6414-.9695.9433-1.417.5659-.895 1.0564-1.79 1.6601-2.6104.2641-.3729 3.2825-4.5495 3.5844-4.8105-.0755.0372-.151.0745-.2264.1491.3018-.3729.6414-.7085.9432-1.0068.0378.0373-.2263.261-.1886.2983.0755.0373 1.811-1.3052 2.1131-1.3425.83-.1491.528 1.4171.415 1.8273-.189.8577-.6793 1.6781-1.0944 2.4239-.2263.4102-.4527.7831-.6414 1.1933-.0377.0373-.3396.7458-.2264.6712l-.2263.3357c.0754-.1119.1132-.2611.1132-.2611-.151 0-.3396.634-.3773.7458-.2264.373-.5283.6713-.8301.9696-.7923.895-1.5092 1.8273-2.3015 2.685-.6037.6339-1.3961 1.7526-2.3016 1.9764-.6414.1492-1.1319-.1865-.7923.8204.2264.7085 1.0564 2.3493 1.9619 2.3493.8301 0 1.8488-1.2306 2.3393-1.7527.566-.6339 1.2074-1.2306 1.8111-1.9018.1509-.2237 1.8865-2.2747 2.1508-2.3866h-.038c.377-.1865.755-.0373 1.283-.4102.302-.2238.453-.4475.792-.6713.264-.1491.378-.3356.491-.4475 0 0 0 .0373.037.0373.378-.3729.906-.261 1.396-.5966.604-.4102 1.359-.9323 1.887-1.4171.679-.5966 1.622-.9323 1.924-1.9391-.151.0373-.339.0373-.453.1119zm-19.3174 3.8036v.0373c-.0377.4848-.3773 1.0442-.5659 1.4917-.2642.7085-.4905 1.417-.7169 2.1256-.4905 1.4916-1.0565 2.9832-1.6601 4.4003-.4905 1.1933-.9433 2.4985-1.2829 3.8037.4151-1.8273 1.0942-3.6172 1.6224-5.3326.4905-1.5663 1.2451-3.0952 1.8488-4.6241.0755-.1865.7923-1.6781.7169-1.9764.0377.0373.0377.0745.0377.0745zm1.6601 1.1188c-.1132.4475-.2264.8577-.3773 1.2306.1132-.3729.2264-.8204.3773-1.2306zm5.1691-6.1157-.7169 1.0441c.2264-.3356.4527-.7085.7169-1.0441zm6.1502 4.5122c.037-.1119.226-.1492.339-.2238zm-9.0177-4.3631c-.0378.0373-.0755.1492-.1132.2983zm-.2641.634.1509-.3357zm1.9619.9322v-.0373c.0378-.0372.0377-.0372.0377-.0745.0378-.0373.0001.0373-.0377.1118zm-1.9619-.9322c0 .0745-.0378.1118-.0755.1491zm-7.9988 16.408c0-.0373 0-.0373.0377-.0746 0 .0373 0 .0373-.0377.0746zm6.1877-11.5229c0 .0373-.0377.0373-.0377.0373z"/><path d="m119.991 21.2636c-.113-.522-.415-.5966-.792-.4474-.717.3356-1.434 1.0814-2.113 1.5289-1.547.9696-3.094 1.7527-4.754 2.5731 0-.0373-.037-.1119-.075-.2238.038.1865 0 .2611-.038.2983-.377-1.6035-.755-3.207-1.056-4.8478.151.7085.49 1.9019.754 2.9087-.339-1.5662-.754-3.5053-.717-3.5053-.075.0373-.075.1118-.075.1864-.076-.4475-.189-1.0068-.113-1.4916.037-.5594.339-1.0442.528-1.5662-.038.261-.113.5966-.113.5966.226.0373.377-1.3425.377-1.4916-.038-.2238-.528-.9323-.528-.7459-1.019-.9322-3.019 1.1188-3.32 2.0138-.227.5966-.227 1.2306-.189 1.8645.038.634.226 1.1933.415 1.79.113.4475-.038.7458 0 1.2306.075.7458.34 1.4916.49 2.2002.151.5593.642 1.6781.529 2.2001-.076.5221-1.208.9696-1.698 1.2679-.642.4102-1.283.895-1.924 1.3798-1.132.8577-2.34 1.9391-2.792 3.3189-.076.1864-.34 1.0068-.076 1.156.038.0373.151-.5967.189-.6712-.491 2.4612 1.962 3.6545 4.263 3.6918 2.604.0746 4.415-1.4171 5.32-3.7291.377-1.0069.491-2.051.453-3.0952 0-.7085-.076-1.3797-.189-2.051-.075-.5966-.151-.5593.264-.895.302-.2237.755-.3729 1.057-.522 1.207-.634 2.301-1.3798 3.396-2.1629.792-.5594 2.678-1.5289 2.527-2.7223zm-15.243 12.8282c-.98-.2984 0-1.8273.34-2.3121.566-.7458 1.396-1.3052 2.151-1.8273l1.132-.7458c.113-.0745.83-.6339.603-.5593l.453-.2611-.264.2238c.075-.0373.189-.0746.264-.1492.038.895.038 1.79-.226 2.685-.038.1491-.755 1.6408-1.057 1.9391l.189-.1492c-.34.4102-.717.7459-1.17 1.0069 0-.0373.34-.261.302-.2983l-1.056.4102c-.529.1118-1.132.2237-1.661.0373zm4.754 1.0814c-.98.4102-1.924.5967-2.942.6339 1.848-.1118 3.773-1.0068 4.867-2.5357-.415.8204-.944 1.4543-1.925 1.9018zm2.755-10.5907c-.038-.261-.113-.6339-.227-1.0441.076.4102.151.8204.227 1.0441zm.49 3.8783c-.037-.0373-.037-.1119-.037-.1864 0 .0745.037.1491.037.1864z"/></g></svg>